<mxfile host="Electron" modified="2024-09-20T19:12:53.618Z" agent="Mozilla/5.0 (Windows NT 10.0; Win64; x64) AppleWebKit/537.36 (KHTML, like Gecko) draw.io/24.5.3 Chrome/124.0.6367.207 Electron/30.0.6 Safari/537.36" etag="tZiUnMc62LUM7ncwaVvE" version="24.5.3" type="device">
  <diagram name="LF Version" id="BoCJSDfqyEhz5-4L1Wte">
    <mxGraphModel dx="1313" dy="776" grid="1" gridSize="10" guides="1" tooltips="1" connect="1" arrows="1" fold="1" page="1" pageScale="1" pageWidth="1169" pageHeight="827" math="0" shadow="0">
      <root>
        <mxCell id="0" />
        <mxCell id="1" parent="0" />
        <mxCell id="S__H3cX94i0aIz5cis40-32" value="" style="whiteSpace=wrap;html=1;fillColor=none;dashed=1;dashPattern=8 8;strokeWidth=2;strokeColor=#FF0000;" vertex="1" parent="1">
          <mxGeometry x="730" y="305" width="180" height="280" as="geometry" />
        </mxCell>
        <mxCell id="S__H3cX94i0aIz5cis40-31" value="" style="whiteSpace=wrap;html=1;fillColor=none;dashed=1;dashPattern=8 8;strokeWidth=2;strokeColor=#00FF00;" vertex="1" parent="1">
          <mxGeometry x="190" y="120" width="500" height="650" as="geometry" />
        </mxCell>
        <mxCell id="S__H3cX94i0aIz5cis40-14" style="edgeStyle=orthogonalEdgeStyle;rounded=0;orthogonalLoop=1;jettySize=auto;html=1;exitX=1;exitY=0.5;exitDx=0;exitDy=0;entryX=0;entryY=0.5;entryDx=0;entryDy=0;" edge="1" parent="1" source="S__H3cX94i0aIz5cis40-1" target="S__H3cX94i0aIz5cis40-11">
          <mxGeometry relative="1" as="geometry" />
        </mxCell>
        <mxCell id="S__H3cX94i0aIz5cis40-15" style="edgeStyle=orthogonalEdgeStyle;rounded=0;orthogonalLoop=1;jettySize=auto;html=1;exitX=1;exitY=0.5;exitDx=0;exitDy=0;entryX=0;entryY=0.5;entryDx=0;entryDy=0;" edge="1" parent="1" source="S__H3cX94i0aIz5cis40-1" target="S__H3cX94i0aIz5cis40-12">
          <mxGeometry relative="1" as="geometry" />
        </mxCell>
        <mxCell id="S__H3cX94i0aIz5cis40-22" style="edgeStyle=orthogonalEdgeStyle;rounded=0;orthogonalLoop=1;jettySize=auto;html=1;exitX=0.5;exitY=1;exitDx=0;exitDy=0;entryX=0.5;entryY=0;entryDx=0;entryDy=0;" edge="1" parent="1" source="S__H3cX94i0aIz5cis40-1" target="S__H3cX94i0aIz5cis40-2">
          <mxGeometry relative="1" as="geometry" />
        </mxCell>
        <mxCell id="S__H3cX94i0aIz5cis40-1" value="ARDUINO&lt;br style=&quot;font-size: 14px;&quot;&gt;MEGA 2560" style="rounded=0;whiteSpace=wrap;html=1;fillColor=none;fontSize=14;" vertex="1" parent="1">
          <mxGeometry x="379" y="225" width="120" height="180" as="geometry" />
        </mxCell>
        <mxCell id="S__H3cX94i0aIz5cis40-21" style="edgeStyle=orthogonalEdgeStyle;rounded=0;orthogonalLoop=1;jettySize=auto;html=1;exitX=0.5;exitY=1;exitDx=0;exitDy=0;entryX=1;entryY=0.5;entryDx=0;entryDy=0;" edge="1" parent="1" source="S__H3cX94i0aIz5cis40-2" target="S__H3cX94i0aIz5cis40-20">
          <mxGeometry relative="1" as="geometry" />
        </mxCell>
        <mxCell id="S__H3cX94i0aIz5cis40-23" style="edgeStyle=orthogonalEdgeStyle;rounded=0;orthogonalLoop=1;jettySize=auto;html=1;exitX=0.5;exitY=0;exitDx=0;exitDy=0;entryX=0.5;entryY=1;entryDx=0;entryDy=0;" edge="1" parent="1" source="S__H3cX94i0aIz5cis40-2" target="S__H3cX94i0aIz5cis40-1">
          <mxGeometry relative="1" as="geometry" />
        </mxCell>
        <mxCell id="S__H3cX94i0aIz5cis40-29" style="edgeStyle=orthogonalEdgeStyle;rounded=0;orthogonalLoop=1;jettySize=auto;html=1;exitX=1;exitY=0.5;exitDx=0;exitDy=0;entryX=0.5;entryY=1;entryDx=0;entryDy=0;" edge="1" parent="1" source="S__H3cX94i0aIz5cis40-2" target="S__H3cX94i0aIz5cis40-25">
          <mxGeometry relative="1" as="geometry" />
        </mxCell>
        <mxCell id="S__H3cX94i0aIz5cis40-2" value="RASPBERRY" style="rounded=0;whiteSpace=wrap;html=1;fillColor=none;fontSize=14;" vertex="1" parent="1">
          <mxGeometry x="379" y="485" width="120" height="180" as="geometry" />
        </mxCell>
        <mxCell id="S__H3cX94i0aIz5cis40-16" style="edgeStyle=orthogonalEdgeStyle;rounded=0;orthogonalLoop=1;jettySize=auto;html=1;exitX=1;exitY=0.5;exitDx=0;exitDy=0;entryX=0;entryY=0.5;entryDx=0;entryDy=0;" edge="1" parent="1" source="S__H3cX94i0aIz5cis40-3" target="S__H3cX94i0aIz5cis40-1">
          <mxGeometry relative="1" as="geometry" />
        </mxCell>
        <mxCell id="S__H3cX94i0aIz5cis40-3" value="FRONT GUIDE SENSOR" style="rounded=0;whiteSpace=wrap;html=1;fillColor=none;fontSize=14;" vertex="1" parent="1">
          <mxGeometry x="209" y="140" width="120" height="90" as="geometry" />
        </mxCell>
        <mxCell id="S__H3cX94i0aIz5cis40-17" style="edgeStyle=orthogonalEdgeStyle;rounded=0;orthogonalLoop=1;jettySize=auto;html=1;exitX=1;exitY=0.5;exitDx=0;exitDy=0;entryX=0;entryY=0.5;entryDx=0;entryDy=0;" edge="1" parent="1" source="S__H3cX94i0aIz5cis40-4" target="S__H3cX94i0aIz5cis40-1">
          <mxGeometry relative="1" as="geometry" />
        </mxCell>
        <mxCell id="S__H3cX94i0aIz5cis40-4" value="REAR GUIDE SENSOR" style="rounded=0;whiteSpace=wrap;html=1;fillColor=none;fontSize=14;" vertex="1" parent="1">
          <mxGeometry x="209" y="270" width="120" height="90" as="geometry" />
        </mxCell>
        <mxCell id="S__H3cX94i0aIz5cis40-18" style="edgeStyle=orthogonalEdgeStyle;rounded=0;orthogonalLoop=1;jettySize=auto;html=1;exitX=1;exitY=0.5;exitDx=0;exitDy=0;entryX=0;entryY=0.5;entryDx=0;entryDy=0;" edge="1" parent="1" source="S__H3cX94i0aIz5cis40-5" target="S__H3cX94i0aIz5cis40-1">
          <mxGeometry relative="1" as="geometry" />
        </mxCell>
        <mxCell id="S__H3cX94i0aIz5cis40-5" value="FRONT NFC TAG" style="rounded=0;whiteSpace=wrap;html=1;fillColor=none;fontSize=14;" vertex="1" parent="1">
          <mxGeometry x="209" y="400" width="120" height="90" as="geometry" />
        </mxCell>
        <mxCell id="S__H3cX94i0aIz5cis40-19" style="edgeStyle=orthogonalEdgeStyle;rounded=0;orthogonalLoop=1;jettySize=auto;html=1;exitX=1;exitY=0.5;exitDx=0;exitDy=0;entryX=0;entryY=0.5;entryDx=0;entryDy=0;" edge="1" parent="1" source="S__H3cX94i0aIz5cis40-6" target="S__H3cX94i0aIz5cis40-1">
          <mxGeometry relative="1" as="geometry" />
        </mxCell>
        <mxCell id="S__H3cX94i0aIz5cis40-6" value="REAR NFC TAG" style="rounded=0;whiteSpace=wrap;html=1;fillColor=none;fontSize=14;" vertex="1" parent="1">
          <mxGeometry x="209" y="530" width="120" height="90" as="geometry" />
        </mxCell>
        <mxCell id="S__H3cX94i0aIz5cis40-11" value="RIGHT MOTOR&lt;div&gt;DRIVER&lt;/div&gt;" style="rounded=0;whiteSpace=wrap;html=1;fillColor=none;fontSize=14;" vertex="1" parent="1">
          <mxGeometry x="549" y="140" width="120" height="90" as="geometry" />
        </mxCell>
        <mxCell id="S__H3cX94i0aIz5cis40-12" value="LEFT MOTOR&lt;div&gt;DRIVER&lt;/div&gt;" style="rounded=0;whiteSpace=wrap;html=1;fillColor=none;fontSize=14;" vertex="1" parent="1">
          <mxGeometry x="549" y="270" width="120" height="90" as="geometry" />
        </mxCell>
        <mxCell id="S__H3cX94i0aIz5cis40-20" value="LCD" style="rounded=0;whiteSpace=wrap;html=1;fillColor=none;fontSize=14;" vertex="1" parent="1">
          <mxGeometry x="209" y="660" width="120" height="90" as="geometry" />
        </mxCell>
        <mxCell id="S__H3cX94i0aIz5cis40-26" value="" style="edgeStyle=orthogonalEdgeStyle;rounded=0;orthogonalLoop=1;jettySize=auto;html=1;" edge="1" parent="1" source="S__H3cX94i0aIz5cis40-24" target="S__H3cX94i0aIz5cis40-25">
          <mxGeometry relative="1" as="geometry" />
        </mxCell>
        <mxCell id="S__H3cX94i0aIz5cis40-24" value="PC" style="rounded=0;whiteSpace=wrap;html=1;fillColor=none;fontSize=14;" vertex="1" parent="1">
          <mxGeometry x="759" y="330" width="120" height="90" as="geometry" />
        </mxCell>
        <mxCell id="S__H3cX94i0aIz5cis40-27" style="edgeStyle=orthogonalEdgeStyle;rounded=0;orthogonalLoop=1;jettySize=auto;html=1;exitX=0.5;exitY=0;exitDx=0;exitDy=0;entryX=0.5;entryY=1;entryDx=0;entryDy=0;" edge="1" parent="1" source="S__H3cX94i0aIz5cis40-25" target="S__H3cX94i0aIz5cis40-24">
          <mxGeometry relative="1" as="geometry" />
        </mxCell>
        <mxCell id="S__H3cX94i0aIz5cis40-28" style="edgeStyle=orthogonalEdgeStyle;rounded=0;orthogonalLoop=1;jettySize=auto;html=1;exitX=0.5;exitY=1;exitDx=0;exitDy=0;entryX=1;entryY=0.5;entryDx=0;entryDy=0;" edge="1" parent="1" source="S__H3cX94i0aIz5cis40-25" target="S__H3cX94i0aIz5cis40-2">
          <mxGeometry relative="1" as="geometry" />
        </mxCell>
        <mxCell id="S__H3cX94i0aIz5cis40-25" value="ROUTER" style="rounded=0;whiteSpace=wrap;html=1;fillColor=none;fontSize=14;" vertex="1" parent="1">
          <mxGeometry x="759" y="460" width="120" height="90" as="geometry" />
        </mxCell>
        <mxCell id="S__H3cX94i0aIz5cis40-30" value="AGV PROJECT&lt;div style=&quot;font-size: 18px;&quot;&gt;HARDWARE DIAGRAM&lt;/div&gt;" style="text;html=1;align=center;verticalAlign=middle;resizable=0;points=[];autosize=1;strokeColor=none;fillColor=none;spacing=2;fontSize=18;" vertex="1" parent="1">
          <mxGeometry x="475" y="35" width="220" height="60" as="geometry" />
        </mxCell>
        <mxCell id="S__H3cX94i0aIz5cis40-33" value="AGV" style="text;html=1;align=center;verticalAlign=middle;resizable=0;points=[];autosize=1;strokeColor=none;fillColor=none;fontSize=16;" vertex="1" parent="1">
          <mxGeometry x="409" y="775" width="60" height="30" as="geometry" />
        </mxCell>
        <mxCell id="S__H3cX94i0aIz5cis40-34" value="CTRL STATION" style="text;html=1;align=center;verticalAlign=middle;resizable=0;points=[];autosize=1;strokeColor=none;fillColor=none;fontSize=15;" vertex="1" parent="1">
          <mxGeometry x="755" y="585" width="130" height="30" as="geometry" />
        </mxCell>
      </root>
    </mxGraphModel>
  </diagram>
</mxfile>
